<!DOCTYPE svg PUBLIC "-//W3C//DTD SVG 20010904//EN" "http://www.w3.org/TR/2001/REC-SVG-20010904/DTD/svg10.dtd">
<svg version="1.0" xmlns="http://www.w3.org/2000/svg" width="106px" height="80px" viewBox="0 0 1060 800" preserveAspectRatio="xMidYMid meet">
<g id="layer101" fill="#4a3c55" stroke="none">
 <path d="M110 685 l-115 -115 18 -67 c10 -38 38 -145 63 -239 l46 -172 71 -18 c61 -16 72 -23 77 -44 6 -25 7 -25 110 -25 l105 0 3 38 c3 36 4 37 42 37 38 0 39 -1 42 -37 l3 -38 105 0 c103 0 104 0 110 25 5 21 16 28 77 44 l71 18 46 172 c25 94 53 201 63 239 l18 67 -115 115 c-63 63 -122 115 -132 115 -27 0 -68 -22 -68 -37 0 -8 7 -25 16 -38 15 -23 15 -25 0 -25 -32 0 -64 -128 -36 -145 18 -11 10 -44 -19 -77 -23 -25 -31 -29 -35 -18 -3 8 -17 54 -31 103 l-26 87 -89 0 -89 0 -26 -87 c-14 -49 -28 -95 -31 -103 -4 -11 -12 -7 -35 18 -29 33 -37 66 -19 77 24 15 -2 135 -32 143 -16 4 -16 6 -3 25 8 12 15 29 15 38 0 17 -39 39 -68 39 -10 0 -69 -52 -132 -115z"/>
 </g>
<g id="layer102" fill="#5d5762" stroke="none">
 <path d="M110 685 l-115 -115 18 -67 c10 -38 38 -145 63 -239 l46 -172 84 -22 c55 -14 84 -27 84 -36 0 -11 20 -14 91 -14 l92 0 -6 30 -6 30 69 0 70 0 -6 -30 -6 -30 91 0 c71 0 91 3 91 14 0 9 29 22 84 36 l84 22 46 172 c25 94 53 201 63 239 l18 67 -115 115 c-63 63 -122 115 -132 115 -27 0 -68 -22 -68 -37 0 -8 7 -25 16 -38 15 -23 15 -25 0 -25 -32 0 -64 -128 -36 -145 18 -11 10 -44 -19 -77 -23 -25 -31 -29 -35 -18 -3 8 -17 54 -31 103 l-26 87 -89 0 -89 0 -26 -87 c-14 -49 -28 -95 -31 -103 -4 -11 -12 -7 -35 18 -29 33 -37 66 -19 77 24 15 -2 135 -32 143 -16 4 -16 6 -3 25 8 12 15 29 15 38 0 17 -39 39 -68 39 -10 0 -69 -52 -132 -115z m443 -167 c2 -7 12 -58 22 -114 17 -96 17 -102 0 -127 -9 -15 -24 -27 -31 -27 -11 0 -14 27 -14 140 0 124 8 167 23 128z"/>
 </g>
<g id="layer103" fill="#a93838" stroke="none">
 <path d="M110 685 l-115 -115 18 -67 c10 -38 38 -145 63 -239 l46 -171 118 -32 c64 -17 125 -31 134 -31 10 0 21 12 27 28 l9 27 120 0 120 0 9 -27 c6 -16 17 -28 27 -28 9 0 70 14 134 31 l118 32 46 171 c25 94 53 201 63 239 l18 67 -115 115 c-63 63 -122 115 -132 115 -27 0 -68 -22 -68 -37 0 -8 7 -25 16 -38 15 -23 15 -25 0 -25 -36 0 -60 -116 -32 -153 12 -15 12 -23 1 -44 -18 -34 -54 -59 -60 -41 -2 7 -16 52 -30 101 l-26 87 -89 0 -89 0 -26 -87 c-14 -49 -28 -94 -30 -101 -6 -18 -42 7 -60 41 -11 21 -11 29 1 44 7 10 14 29 14 42 0 42 -23 104 -42 109 -16 4 -16 6 -3 25 8 12 15 29 15 38 0 17 -39 39 -68 39 -10 0 -69 -52 -132 -115z m464 -272 c18 -105 18 -113 2 -137 -23 -36 -68 -35 -91 1 -17 25 -17 31 0 127 22 126 23 128 49 124 18 -3 23 -16 40 -115z"/>
 </g>
<g id="layer104" fill="#7d7186" stroke="none">
 <path d="M110 685 l-115 -115 18 -67 c10 -38 38 -145 63 -239 l46 -172 123 -32 c117 -31 155 -33 155 -11 0 5 -10 13 -22 17 -22 6 -49 17 -154 63 l-50 23 -53 199 c-47 176 -51 202 -39 217 8 9 54 63 101 118 48 56 87 104 87 108 0 3 -10 6 -23 6 -15 0 -58 -36 -137 -115z"/>
 <path d="M790 794 c0 -4 39 -52 87 -108 47 -55 93 -109 101 -118 12 -15 8 -41 -39 -217 l-53 -199 -50 -23 c-105 -46 -132 -57 -153 -63 -13 -4 -23 -12 -23 -17 0 -22 38 -20 155 11 l123 32 46 172 c25 94 53 201 63 239 l18 67 -115 115 c-79 79 -122 115 -137 115 -13 0 -23 -3 -23 -6z"/>
 <path d="M260 685 c-10 -11 -6 -28 21 -85 31 -67 33 -69 47 -49 15 22 13 72 -7 122 -12 30 -41 36 -61 12z"/>
 <path d="M734 665 c-17 -43 -18 -94 0 -117 12 -16 17 -10 45 52 27 57 31 74 21 85 -22 26 -50 18 -66 -20z"/>
 <path d="M416 568 c-13 -46 -28 -96 -31 -113 -4 -16 -18 -69 -32 -116 l-25 -86 43 -84 44 -84 115 0 115 0 44 84 43 84 -25 86 c-14 47 -28 100 -32 116 -3 17 -18 67 -31 113 l-25 82 -89 0 -89 0 -25 -82z m158 -155 c18 -105 18 -113 2 -137 -23 -36 -68 -35 -91 1 -17 25 -17 31 0 127 22 126 23 128 49 124 18 -3 23 -16 40 -115z"/>
 </g>
<g id="layer105" fill="#c27b7b" stroke="none">
 <path d="M110 685 l-115 -115 18 -67 c10 -38 38 -145 64 -240 l45 -171 72 -18 c39 -10 74 -17 77 -17 3 1 27 -4 54 -12 26 -8 51 -12 56 -9 15 9 10 24 -8 31 -20 7 -72 29 -149 62 l-50 23 -53 199 c-47 176 -51 202 -39 217 8 9 54 63 101 118 48 56 87 104 87 108 0 3 -10 6 -23 6 -15 0 -58 -36 -137 -115z"/>
 <path d="M790 794 c0 -4 39 -52 87 -108 47 -55 93 -109 101 -118 12 -15 8 -41 -39 -217 l-53 -199 -50 -23 c-77 -33 -129 -55 -148 -62 -19 -7 -24 -22 -9 -31 5 -3 30 1 56 9 27 8 51 13 54 12 3 0 38 7 77 17 l72 18 45 171 c26 95 54 202 64 240 l18 67 -115 115 c-79 79 -122 115 -137 115 -13 0 -23 -3 -23 -6z"/>
 <path d="M256 672 c-7 -12 36 -103 48 -99 18 6 18 32 2 71 -14 33 -38 47 -50 28z"/>
 <path d="M754 644 c-16 -39 -16 -65 2 -71 12 -4 55 87 48 99 -12 19 -36 5 -50 -28z"/>
 <path d="M415 563 c-15 -48 -28 -96 -29 -107 -2 -21 -11 -50 -43 -151 l-16 -50 41 -81 41 -81 60 -7 c34 -4 88 -4 122 0 l60 7 41 81 41 81 -16 50 c-32 101 -41 130 -43 151 -1 11 -14 59 -29 107 l-26 87 -89 0 -89 0 -26 -87z m161 -145 l20 -113 -20 -32 c-15 -23 -29 -33 -46 -33 -17 0 -31 10 -46 33 l-20 32 20 113 c20 109 21 112 47 112 25 0 26 -3 45 -112z"/>
 </g>
<g id="layer106" fill="#bab6bc" stroke="none">
 <path d="M110 685 l-115 -115 18 -67 c10 -38 38 -145 64 -240 l45 -171 72 -18 c39 -10 74 -17 77 -17 3 1 27 -4 54 -12 45 -14 65 -13 65 4 0 4 -50 29 -110 55 -94 41 -111 52 -116 74 -3 15 -14 56 -24 92 -51 183 -70 257 -70 272 0 9 42 66 94 126 114 134 113 132 84 132 -16 0 -57 -34 -138 -115z"/>
 <path d="M796 789 c3 -6 49 -61 100 -121 52 -60 94 -117 94 -126 0 -15 -19 -89 -70 -272 -10 -36 -21 -77 -24 -92 -5 -22 -22 -33 -116 -74 -60 -26 -110 -51 -110 -55 0 -17 20 -18 65 -4 27 8 51 13 54 12 3 0 38 7 77 17 l72 18 45 171 c26 95 54 202 64 240 l18 67 -115 115 c-81 81 -122 115 -138 115 -14 0 -21 -4 -16 -11z"/>
 <path d="M258 674 c-10 -9 34 -105 46 -101 18 6 18 32 2 71 -14 33 -34 45 -48 30z"/>
 <path d="M754 644 c-16 -39 -16 -65 2 -71 12 -4 56 92 46 101 -14 15 -34 3 -48 -30z"/>
 <path d="M415 564 c-14 -47 -28 -100 -30 -117 -3 -18 -16 -67 -29 -110 l-24 -79 38 -82 38 -83 61 -7 c34 -4 88 -4 122 0 l61 7 38 83 38 82 -24 79 c-13 43 -26 92 -29 110 -2 17 -16 70 -30 117 l-26 86 -89 0 -89 0 -26 -86z m161 -146 l20 -113 -20 -32 c-15 -23 -29 -33 -46 -33 -17 0 -31 10 -46 33 l-20 32 20 113 c20 109 21 112 47 112 25 0 26 -3 45 -112z"/>
 </g>
<g id="layer107" fill="#e5e4e4" stroke="none">
 <path d="M128 673 l-106 -108 60 -226 60 -226 116 -31 c64 -17 118 -29 120 -28 1 2 -12 10 -30 18 -201 91 -177 65 -219 228 -12 47 -32 123 -45 169 l-24 83 83 97 c105 122 111 131 101 131 -5 0 -57 -48 -116 -107z"/>
 <path d="M821 763 c8 -10 51 -61 96 -114 l83 -97 -24 -83 c-13 -46 -33 -122 -45 -169 -42 -163 -18 -137 -219 -228 -18 -8 -31 -16 -30 -18 2 -1 56 11 120 28 l116 31 60 226 60 226 -106 108 c-59 59 -111 107 -116 107 -4 0 -2 -8 5 -17z"/>
 <path d="M436 538 c-14 -46 -38 -128 -54 -183 l-28 -100 34 -73 34 -72 108 0 108 0 34 72 34 73 -28 100 c-16 55 -40 137 -54 183 l-25 82 -69 0 -69 0 -25 -82z m118 -7 c3 -5 15 -59 27 -120 l21 -110 -22 -30 c-29 -42 -71 -42 -100 0 l-22 30 21 110 c12 61 24 115 27 120 7 12 41 12 48 0z"/>
 </g>

</svg>